<svg width="58" height="58" viewBox="0 0 58 58" fill="none" xmlns="http://www.w3.org/2000/svg">
<path d="M14.5 45.9166V47.1854C14.5 48.1923 14.1576 49.0382 13.4729 49.7229C12.7882 50.4076 11.9222 50.75 10.875 50.75C9.86806 50.75 9.01176 50.3971 8.30609 49.6915C7.60042 48.9858 7.24839 48.1303 7.25001 47.125V29L12.325 14.5C12.5667 13.775 12.9993 13.191 13.6228 12.7479C14.2463 12.3048 14.9414 12.0833 15.7083 12.0833H42.2917C43.0569 12.0833 43.7521 12.3048 44.3773 12.7479C45.0024 13.191 45.4349 13.775 45.675 14.5L50.75 29V47.1854C50.75 48.1923 50.4076 49.0382 49.7229 49.7229C49.0382 50.4076 48.1722 50.75 47.125 50.75C46.1181 50.75 45.2626 50.3971 44.5585 49.6915C43.8544 48.9858 43.5016 48.1303 43.5 47.125V45.9166H14.5ZM14.0167 24.1666H43.9833L41.4458 16.9166H16.5542L14.0167 24.1666ZM18.125 38.6666C19.1319 38.6666 19.9883 38.3138 20.6939 37.6081C21.3996 36.9025 21.7516 36.047 21.75 35.0416C21.75 34.0347 21.3972 33.1784 20.6915 32.4727C19.9858 31.7671 19.1303 31.415 18.125 31.4166C17.1181 31.4166 16.2618 31.7695 15.5561 32.4751C14.8504 33.1808 14.4984 34.0363 14.5 35.0416C14.5 36.0486 14.8528 36.9049 15.5585 37.6106C16.2642 38.3162 17.1197 38.6683 18.125 38.6666ZM39.875 38.6666C40.8819 38.6666 41.7383 38.3138 42.4439 37.6081C43.1496 36.9025 43.5016 36.047 43.5 35.0416C43.5 34.0347 43.1472 33.1784 42.4415 32.4727C41.7358 31.7671 40.8803 31.415 39.875 31.4166C38.8681 31.4166 38.0118 31.7695 37.3061 32.4751C36.6004 33.1808 36.2484 34.0363 36.25 35.0416C36.25 36.0486 36.6028 36.9049 37.3085 37.6106C38.0142 38.3162 38.8697 38.6683 39.875 38.6666Z" fill="#0038FF"/>
</svg>
