<svg width="45" height="45" viewBox="0 0 45 45" fill="none" xmlns="http://www.w3.org/2000/svg">
<g clip-path="url(#clip0_2_172)">
<path d="M29.0625 10.3125C28.0313 10.3125 27.1481 9.945 26.4131 9.21C25.6781 8.475 25.3113 7.5925 25.3125 6.5625C25.3125 5.53125 25.68 4.64813 26.415 3.91313C27.15 3.17813 28.0325 2.81125 29.0625 2.8125C30.0938 2.8125 30.9769 3.18 31.7119 3.915C32.4469 4.65 32.8138 5.5325 32.8125 6.5625C32.8125 7.59375 32.445 8.47688 31.71 9.21188C30.975 9.94688 30.0925 10.3138 29.0625 10.3125ZM20.25 19.6875L24.375 24V35.625H20.625V26.25L11.8125 18.5625L19.875 10.5C20.2813 10.0938 20.7113 9.805 21.165 9.63375C21.6188 9.4625 22.1263 9.37625 22.6875 9.375C23.25 9.375 23.7581 9.46125 24.2119 9.63375C24.6656 9.80625 25.095 10.095 25.5 10.5L29.0625 14.0625C29.9063 14.9063 30.8906 15.5863 32.0156 16.1025C33.1406 16.6188 34.4062 16.8763 35.8125 16.875V20.625C33.8438 20.625 32.0625 20.2731 30.4688 19.5694C28.875 18.8656 27.4688 17.905 26.25 16.6875L24.75 15.1875L20.25 19.6875ZM9.375 41.25C6.71875 41.25 4.49188 40.3513 2.69438 38.5538C0.896876 36.7563 -0.0012487 34.53 1.30299e-06 31.875C1.30299e-06 29.2188 0.898751 26.9919 2.69625 25.1944C4.49375 23.3969 6.72 22.4988 9.375 22.5C12.0313 22.5 14.2581 23.3988 16.0556 25.1963C17.8531 26.9938 18.7513 29.22 18.75 31.875C18.75 34.5313 17.8513 36.7581 16.0538 38.5556C14.2563 40.3531 12.03 41.2513 9.375 41.25ZM9.375 38.4375C11.1563 38.4375 12.6956 37.7888 13.9931 36.4913C15.2906 35.1938 15.9388 33.655 15.9375 31.875C15.9375 30.0938 15.2888 28.5544 13.9913 27.2569C12.6938 25.9594 11.155 25.3113 9.375 25.3125C7.59375 25.3125 6.05438 25.9613 4.75688 27.2588C3.45938 28.5563 2.81125 30.095 2.8125 31.875C2.8125 33.6563 3.46125 35.1956 4.75875 36.4931C6.05625 37.7906 7.595 38.4388 9.375 38.4375ZM35.625 41.25C32.9688 41.25 30.7419 40.3513 28.9444 38.5538C27.1469 36.7563 26.2488 34.53 26.25 31.875C26.25 29.2188 27.1488 26.9919 28.9463 25.1944C30.7438 23.3969 32.97 22.4988 35.625 22.5C38.2812 22.5 40.5081 23.3988 42.3056 25.1963C44.1031 26.9938 45.0013 29.22 45 31.875C45 34.5313 44.1012 36.7581 42.3037 38.5556C40.5063 40.3531 38.28 41.2513 35.625 41.25ZM35.625 38.4375C37.4062 38.4375 38.9456 37.7888 40.2431 36.4913C41.5406 35.1938 42.1888 33.655 42.1875 31.875C42.1875 30.0938 41.5387 28.5544 40.2412 27.2569C38.9437 25.9594 37.405 25.3113 35.625 25.3125C33.8438 25.3125 32.3044 25.9613 31.0069 27.2588C29.7094 28.5563 29.0613 30.095 29.0625 31.875C29.0625 33.6563 29.7113 35.1956 31.0088 36.4931C32.3063 37.7906 33.845 38.4388 35.625 38.4375Z" fill="#8F00FF"/>
</g>
<defs>
<clipPath id="clip0_2_172">
<rect width="45" height="45" fill="white"/>
</clipPath>
</defs>
</svg>
