<svg width="53" height="53" viewBox="0 0 53 53" fill="none" xmlns="http://www.w3.org/2000/svg">
<path d="M46.375 44.1667H50.7917V48.5834H2.20834V44.1667H6.625V6.62502C6.625 6.03933 6.85767 5.47764 7.27181 5.06349C7.68595 4.64935 8.24765 4.41669 8.83334 4.41669H44.1667C44.7524 4.41669 45.3141 4.64935 45.7282 5.06349C46.1423 5.47764 46.375 6.03933 46.375 6.62502V44.1667ZM17.6667 24.2917V28.7084H24.2917V24.2917H17.6667ZM17.6667 15.4584V19.875H24.2917V15.4584H17.6667ZM17.6667 33.125V37.5417H24.2917V33.125H17.6667ZM28.7083 33.125V37.5417H35.3333V33.125H28.7083ZM28.7083 24.2917V28.7084H35.3333V24.2917H28.7083ZM28.7083 15.4584V19.875H35.3333V15.4584H28.7083Z" fill="#FF8A00"/>
</svg>
